<?xml version="1.0" encoding="iso-8859-1"?>
<!-- Generator: Adobe Illustrator 19.0.0, SVG Export Plug-In . SVG Version: 6.00 Build 0)  -->
<svg xmlns="http://www.w3.org/2000/svg" xmlns:xlink="http://www.w3.org/1999/xlink" version="1.1" id="Layer_1" x="0px" y="0px" viewBox="0 0 511.996 511.996" style="enable-background:new 0 0 511.996 511.996;" xml:space="preserve" width="512px" height="512px">
<g>
	<g>
		<path d="M501.339,21.336H266.662V10.664C266.662,4.773,261.889,0,255.998,0c-5.891,0-10.664,4.773-10.664,10.664v10.672H10.665    C4.774,21.336,0.001,26.109,0.001,32v64c0,5.89,4.773,10.663,10.664,10.663h10.672v277.333h223.997v26.031l-133.592,82.219    c-5.016,3.094-6.578,9.656-3.492,14.672c2.016,3.266,5.516,5.078,9.094,5.078c1.906,0,3.836-0.5,5.578-1.594l122.412-75.312v66.25    c0,5.875,4.773,10.656,10.664,10.656c5.891,0,10.664-4.781,10.664-10.656v-66.25l122.413,75.312    c1.734,1.094,3.672,1.594,5.578,1.594c3.578,0,7.078-1.812,9.094-5.078c3.094-5.016,1.531-11.578-3.5-14.672l-133.585-82.219    v-26.031h223.989V106.663h10.688c5.875,0,10.656-4.773,10.656-10.663V32C511.995,26.109,507.214,21.336,501.339,21.336z     M42.665,362.652V106.663H469.34v255.989H42.665z M490.651,85.336H21.337V42.664h469.314V85.336z" fill="#FFFFFF"/>
	</g>
</g>
<g>
	<g>
		<path d="M121.75,298.654l13.789-13.781c4.172-4.156,4.172-10.922,0-15.086c-4.164-4.164-10.914-4.164-15.078,0l-13.797,13.789    l-13.789-13.789c-4.164-4.164-10.922-4.164-15.086,0s-4.164,10.93,0,15.086l13.797,13.781l-13.797,13.797    c-4.164,4.172-4.164,10.922,0,15.078c2.086,2.094,4.812,3.125,7.547,3.125c2.727,0,5.461-1.031,7.539-3.125l13.789-13.781    l13.797,13.781c2.078,2.094,4.812,3.125,7.539,3.125c2.727,0,5.461-1.031,7.539-3.125c4.172-4.156,4.172-10.906,0-15.078    L121.75,298.654z" fill="#FFFFFF"/>
	</g>
</g>
<g>
	<g>
		<path d="M420.403,255.998l13.812-13.789c4.156-4.172,4.156-10.922,0-15.086c-4.187-4.172-10.937-4.164-15.093,0l-13.781,13.789    l-13.812-13.789c-4.156-4.172-10.906-4.164-15.062,0c-4.188,4.164-4.188,10.914,0,15.086l13.78,13.789l-13.781,13.789    c-4.188,4.164-4.188,10.914,0,15.086c2.062,2.078,4.812,3.125,7.531,3.125s5.469-1.047,7.531-3.125l13.812-13.797l13.781,13.797    c2.094,2.078,4.812,3.125,7.531,3.125c2.75,0,5.469-1.047,7.562-3.125c4.156-4.172,4.156-10.922,0-15.086L420.403,255.998z" fill="#FFFFFF"/>
	</g>
</g>
<g>
	<g>
		<path d="M164.421,170.663l13.789-13.789c4.164-4.164,4.164-10.922,0-15.086s-10.922-4.164-15.086,0l-13.789,13.789l-13.796-13.789    c-4.164-4.164-10.914-4.164-15.078,0c-4.172,4.164-4.172,10.922,0,15.086l13.789,13.789l-13.789,13.789    c-4.172,4.172-4.172,10.921,0,15.085c2.078,2.086,4.812,3.125,7.539,3.125c2.727,0,5.461-1.039,7.539-3.125l13.796-13.788    l13.789,13.788c2.086,2.086,4.812,3.125,7.539,3.125c2.734,0,5.461-1.039,7.547-3.125c4.164-4.164,4.164-10.913,0-15.085    L164.421,170.663z" fill="#FFFFFF"/>
	</g>
</g>
<g>
	<g>
		<path d="M319.997,138.663c0,0,0,0-0.016,0h-32.843c-5.891,0-10.672,4.781-10.672,10.672s4.781,10.664,10.672,10.664h7.108    l-77.787,77.788c-3.39,3.383-4.023,8.477-1.905,12.5c0.484,0.93,1.125,1.805,1.906,2.586l24.117,24.125    c-3.75,6.344-5.914,13.75-5.914,21.656c0,23.562,19.108,42.67,42.679,42.67c23.562,0,42.655-19.107,42.655-42.67    s-19.094-42.656-42.655-42.656c-7.922,0-15.328,2.156-21.68,5.914l-16.577-16.578l70.256-70.249v6.25    c0,5.891,4.766,10.664,10.656,10.664s10.656-4.773,10.656-10.664v-32C330.653,143.444,325.887,138.663,319.997,138.663z     M277.342,277.326c11.75,0,21.311,9.578,21.311,21.328c0,11.781-9.562,21.344-21.312,21.344c-11.773,0-21.343-9.562-21.343-21.344    C255.998,286.904,265.568,277.326,277.342,277.326z" fill="#FFFFFF"/>
	</g>
</g>
<g>
</g>
<g>
</g>
<g>
</g>
<g>
</g>
<g>
</g>
<g>
</g>
<g>
</g>
<g>
</g>
<g>
</g>
<g>
</g>
<g>
</g>
<g>
</g>
<g>
</g>
<g>
</g>
<g>
</g>
</svg>
