<?xml version="1.0" encoding="iso-8859-1"?>
<!-- Generator: Adobe Illustrator 19.0.0, SVG Export Plug-In . SVG Version: 6.00 Build 0)  -->
<svg version="1.1" id="Capa_1" xmlns="http://www.w3.org/2000/svg" xmlns:xlink="http://www.w3.org/1999/xlink" x="0px" y="0px"
	 viewBox="0 0 512 512" style="enable-background:new 0 0 512 512;" xml:space="preserve">
<g>
	<polygon style="fill:#EBAA39;" points="256,492.688 268.688,480 243.312,480 	"/>
	<path style="fill:#EBAA39;" d="M284.44,438.656c-2.688,1.8-6.184,1.8-8.872,0L256,425.616l-19.56,13.04
		c-2.688,1.8-6.184,1.8-8.872,0L208,425.616l-11.44,7.624L227.312,464h57.376l30.76-30.752L304,425.616L284.44,438.656z"/>
</g>
<path style="fill:#5E8DA7;" d="M424.28,217.696l-3.768-7.616l-3.76,7.616c-1.16,2.36-3.416,4-6.024,4.376l-8.408,1.216l6.088,5.936
	c1.88,1.832,2.744,4.488,2.296,7.08l-1.44,8.376l7.512-3.952c1.176-0.616,2.448-0.92,3.728-0.92s2.552,0.304,3.728,0.92l7.512,3.952
	l-1.432-8.376c-0.448-2.592,0.416-5.24,2.296-7.08l6.088-5.936l-8.408-1.216C427.696,221.696,425.448,220.064,424.28,217.696z"/>
<path style="fill:#C13D3D;" d="M342.232,83.304c-2.608-0.376-4.856-2.016-6.024-4.376l-15.08-30.536l-15.08,30.536
	c-1.168,2.36-3.416,4-6.024,4.376l-33.704,4.904l24.392,23.776c1.88,1.832,2.744,4.488,2.296,7.08l-5.76,33.576l30.152-15.848
	c1.168-0.616,2.448-0.92,3.728-0.92s2.552,0.304,3.728,0.92l30.152,15.848l-5.76-33.576c-0.448-2.592,0.416-5.24,2.296-7.08
	l24.392-23.776L342.232,83.304z"/>
<path style="fill:#EBAA39;" d="M110.608,172.328l-5.064-10.248l-5.064,10.248c-1.168,2.36-3.416,4-6.024,4.376l-11.312,1.648
	l8.184,7.976c1.88,1.832,2.744,4.488,2.296,7.08l-1.928,11.272l10.12-5.32c1.176-0.616,2.448-0.92,3.728-0.92
	s2.552,0.304,3.728,0.92l10.12,5.32l-1.928-11.272c-0.448-2.592,0.416-5.24,2.296-7.08l8.184-7.976l-11.312-1.648
	C114.024,176.328,111.776,174.688,110.608,172.328z"/>
<path style="fill:#5E8DA7;" d="M161.016,67.616l-2.92,17.064l15.312-8.056c1.168-0.616,2.448-0.92,3.728-0.92
	s2.552,0.304,3.728,0.92l15.312,8.056l-2.92-17.064c-0.448-2.592,0.416-5.24,2.296-7.08l12.392-12.08l-17.12-2.496
	c-2.608-0.376-4.856-2.016-6.024-4.376l-7.664-15.504l-7.656,15.512c-1.168,2.36-3.416,4-6.024,4.376l-17.128,2.496l12.392,12.08
	C160.6,62.376,161.464,65.024,161.016,67.616z"/>
<g>
	<circle style="fill:#EBAA39;" cx="488" cy="24" r="8"/>
	<path style="fill:#EBAA39;" d="M296,336h-16c0-39.736,11.08-74.288,28.432-96H273.84c-1.16,5.128-1.84,10.464-1.84,16h-16
		c0-5.48,0.504-10.832,1.448-16H232.76c9.6,16.184,15.232,35.376,15.232,56h-16c0-21.256-6.888-40.776-18.336-56H192v177.056
		l11.56-7.712c2.688-1.8,6.184-1.8,8.872,0L232,422.384l19.56-13.04c2.688-1.8,6.184-1.8,8.872,0L280,422.384l19.56-13.04
		c2.688-1.8,6.184-1.8,8.872,0L320,417.056V280h8v-37.456C309.28,259.592,296,295.48,296,336z M248,392h-16v-16h16V392z M248,360
		h-16v-16h16V360z M248,328h-16v-16h16V328z M272,288h-16v-16h16V288z M296,368h-16v-16h16V368z"/>
</g>
<g>
	<path style="fill:#1F2933;" d="M320,417.056l-11.56-7.712c-2.688-1.8-6.184-1.8-8.872,0L280,422.384l-19.56-13.04
		c-2.688-1.8-6.184-1.8-8.872,0L232,422.384l-19.56-13.04c-2.688-1.8-6.184-1.8-8.872,0L192,417.056V240h-8h-8v192
		c0,2.152,0.88,4.168,2.36,5.64l-0.016,0.016l72,72c1.56,1.56,3.608,2.344,5.656,2.344s4.096-0.784,5.656-2.344l72-72l-0.016-0.016
		c1.48-1.472,2.36-3.488,2.36-5.64V280h-8h-8V417.056z M256,492.688L243.312,480h25.376L256,492.688z M284.688,464h-57.376
		l-30.752-30.752l11.44-7.632l19.56,13.04c2.688,1.8,6.184,1.8,8.872,0L256,425.616l19.56,13.04c2.688,1.8,6.184,1.8,8.872,0
		L304,425.616l11.44,7.624L284.688,464z"/>
	<path style="fill:#1F2933;" d="M152.744,170.296c-0.944-2.896-3.448-5.008-6.464-5.448l-23.184-3.376l-10.376-21.016
		c-2.688-5.472-11.656-5.472-14.344,0L88,161.48l-23.184,3.376c-3.016,0.44-5.512,2.544-6.464,5.448
		c-0.936,2.888-0.152,6.072,2.024,8.192l16.784,16.36L73.2,217.96c-0.512,3,0.72,6.032,3.176,7.824
		c2.48,1.808,5.744,2.032,8.432,0.608l20.744-10.904l20.744,10.904c1.176,0.616,2.456,0.92,3.728,0.92
		c1.656,0,3.304-0.512,4.704-1.528c2.464-1.792,3.696-4.824,3.184-7.824l-3.96-23.104l16.784-16.36
		C152.896,176.368,153.68,173.184,152.744,170.296z M119.76,186.328c-1.88,1.832-2.744,4.488-2.296,7.08l1.928,11.272l-10.12-5.32
		c-1.168-0.616-2.448-0.92-3.728-0.92s-2.552,0.304-3.728,0.92l-10.12,5.32l1.928-11.272c0.448-2.592-0.416-5.24-2.296-7.08
		l-8.184-7.976l11.312-1.648c2.608-0.376,4.856-2.016,6.024-4.376l5.064-10.248l5.064,10.248c1.168,2.36,3.416,4,6.024,4.376
		l11.312,1.648L119.76,186.328z"/>
	<path style="fill:#1F2933;" d="M144.536,69.064l-4.952,28.888c-0.512,3,0.72,6.032,3.184,7.832c2.48,1.792,5.736,2.024,8.432,0.6
		l25.936-13.64l25.936,13.64c1.168,0.616,2.456,0.92,3.728,0.92c1.656,0,3.304-0.512,4.704-1.52c2.464-1.8,3.696-4.832,3.184-7.832
		l-4.952-28.888L230.728,48.6c2.184-2.128,2.96-5.304,2.024-8.192c-0.944-2.896-3.448-5.008-6.464-5.448l-29.008-4.216
		l-12.976-26.28c-2.688-5.472-11.656-5.472-14.344,0l-12.968,26.28l-29.008,4.216c-3.016,0.44-5.512,2.544-6.464,5.448
		c-0.936,2.888-0.152,6.072,2.024,8.192L144.536,69.064z M163.456,45.968c2.608-0.376,4.856-2.016,6.024-4.376l7.656-15.512
		l7.664,15.512c1.168,2.36,3.416,4,6.024,4.376l17.12,2.496l-12.392,12.08c-1.88,1.84-2.744,4.488-2.296,7.08l2.92,17.064
		l-15.312-8.056c-1.168-0.616-2.448-0.92-3.728-0.92s-2.552,0.304-3.728,0.92l-15.312,8.056l2.92-17.064
		c0.448-2.592-0.416-5.24-2.296-7.08l-12.392-12.08L163.456,45.968z"/>
	<path style="fill:#1F2933;" d="M365.728,120.504l32.992-32.16c2.184-2.128,2.96-5.304,2.024-8.192
		c-0.944-2.896-3.448-5.008-6.464-5.448l-45.584-6.624l-20.392-41.304c-2.688-5.472-11.656-5.472-14.344,0L293.568,68.08
		l-45.584,6.632c-3.016,0.44-5.512,2.544-6.464,5.448c-0.936,2.888-0.152,6.072,2.024,8.192l32.992,32.16l-7.792,45.408
		c-0.52,3,0.72,6.032,3.176,7.816c2.48,1.8,5.744,2.032,8.432,0.608l40.776-21.44l40.776,21.44c1.168,0.616,2.456,0.92,3.728,0.92
		c1.656,0,3.304-0.52,4.704-1.528c2.464-1.792,3.696-4.816,3.184-7.816L365.728,120.504z M351.544,111.984
		c-1.88,1.832-2.744,4.488-2.296,7.08l5.76,33.576l-30.152-15.848c-1.168-0.616-2.448-0.92-3.728-0.92s-2.552,0.304-3.728,0.92
		l-30.152,15.848l5.76-33.576c0.448-2.592-0.416-5.24-2.296-7.08L266.32,88.208l33.704-4.904c2.608-0.376,4.856-2.016,6.024-4.376
		l15.08-30.536l15.08,30.536c1.168,2.36,3.416,4,6.024,4.376l33.704,4.904L351.544,111.984z"/>
	<path style="fill:#1F2933;" d="M457.048,209.792l-20.28-2.944l-9.08-18.384c-2.688-5.472-11.656-5.472-14.344,0l-9.072,18.384
		l-20.288,2.944c-3.016,0.44-5.512,2.544-6.464,5.44c-0.936,2.896-0.152,6.08,2.024,8.2l14.688,14.312l-3.472,20.208
		c-0.512,3,0.72,6.032,3.176,7.824c1.4,1.016,3.048,1.528,4.704,1.528c1.272,0,2.552-0.304,3.728-0.92l18.144-9.536l18.136,9.536
		c2.696,1.424,5.96,1.184,8.432-0.6c2.464-1.8,3.696-4.832,3.184-7.832l-3.464-20.208l14.68-14.312
		c2.184-2.128,2.96-5.304,2.024-8.2C462.56,212.336,460.064,210.224,457.048,209.792z M432.624,229.224
		c-1.88,1.832-2.744,4.488-2.296,7.08l1.432,8.376l-7.512-3.952c-1.168-0.616-2.448-0.92-3.728-0.92s-2.552,0.304-3.728,0.92
		l-7.512,3.952l1.44-8.376c0.448-2.592-0.416-5.24-2.296-7.08l-6.088-5.936l8.408-1.216c2.608-0.376,4.856-2.016,6.024-4.376
		l3.76-7.616l3.768,7.616c1.16,2.368,3.416,4,6.024,4.376l8.408,1.216L432.624,229.224z"/>
	<path style="fill:#1F2933;" d="M248,296c0-20.624-5.64-39.816-15.232-56c-17.088-28.816-46.872-48-80.768-48v16
		c24.784,0,46.976,12.464,61.664,32C225.112,255.224,232,274.744,232,296H248z"/>
	<path style="fill:#1F2933;" d="M308.432,240C291.08,261.712,280,296.264,280,336h16c0-40.52,13.28-76.408,32-93.456
		c7.328-6.672,15.464-10.544,24-10.544v-16C335.472,216,320.456,224.944,308.432,240z"/>
	<path style="fill:#1F2933;" d="M216,200h16c0-17.648,10.768-32,24-32v-16C233.944,152,216,173.528,216,200z"/>
	<path style="fill:#1F2933;" d="M160,128c13.232,0,24,14.352,24,32h16c0-26.472-17.944-48-40-48V128z"/>
	<path style="fill:#1F2933;" d="M272,256c0-5.536,0.68-10.872,1.84-16c6.24-27.56,28.12-48,54.16-48v-16
		c-34.768,0-63.856,27.528-70.552,64c-0.944,5.168-1.448,10.52-1.448,16H272z"/>
	<rect x="280" y="352" style="fill:#1F2933;" width="16" height="16"/>
	<rect x="256" y="272" style="fill:#1F2933;" width="16" height="16"/>
	<rect x="232" y="312" style="fill:#1F2933;" width="16" height="16"/>
	<rect x="232" y="344" style="fill:#1F2933;" width="16" height="16"/>
	<rect x="232" y="376" style="fill:#1F2933;" width="16" height="16"/>
	<rect x="96" y="240" style="fill:#1F2933;" width="16" height="16"/>
	<rect y="128" style="fill:#1F2933;" width="16" height="16"/>
	<rect x="64" y="96" style="fill:#1F2933;" width="16" height="16"/>
	<rect x="392" y="136" style="fill:#1F2933;" width="16" height="16"/>
	<rect x="480" y="80" style="fill:#1F2933;" width="16" height="16"/>
	<rect x="32" y="40" style="fill:#1F2933;" width="16" height="16"/>
	<rect x="88" y="32" style="fill:#1F2933;" width="16" height="16"/>
	<rect x="384" y="24" style="fill:#1F2933;" width="16" height="16"/>
	<rect x="432" y="88" style="fill:#1F2933;" width="16" height="16"/>
	<polygon style="fill:#1F2933;" points="32,192 16,192 16,208 0,208 0,224 16,224 16,240 32,240 32,224 48,224 48,208 32,208 	"/>
	<polygon style="fill:#1F2933;" points="488,128 472,128 472,144 456,144 456,160 472,160 472,176 488,176 488,160 504,160 504,144 
		488,144 	"/>
	<path style="fill:#1F2933;" d="M488,0c-13.232,0-24,10.768-24,24s10.768,24,24,24s24-10.768,24-24S501.232,0,488,0z M488,32
		c-4.416,0-8-3.584-8-8s3.584-8,8-8s8,3.584,8,8S492.416,32,488,32z"/>
</g>
<g>
</g>
<g>
</g>
<g>
</g>
<g>
</g>
<g>
</g>
<g>
</g>
<g>
</g>
<g>
</g>
<g>
</g>
<g>
</g>
<g>
</g>
<g>
</g>
<g>
</g>
<g>
</g>
<g>
</g>
</svg>
