<?xml version="1.0" encoding="iso-8859-1"?>
<!-- Generator: Adobe Illustrator 19.0.0, SVG Export Plug-In . SVG Version: 6.00 Build 0)  -->
<svg version="1.1" id="Capa_1" xmlns="http://www.w3.org/2000/svg" xmlns:xlink="http://www.w3.org/1999/xlink" x="0px" y="0px"
	 viewBox="0 0 512.002 512.002" style="enable-background:new 0 0 512.002 512.002;" xml:space="preserve">
<path style="fill:#40596B;" d="M478.471,83.03c0-10.645-8.515-19.16-19.16-19.16H49.498c-10.645,0-18.095,8.515-18.095,19.16v279.95
	h447.068V83.03z"/>
<path style="fill:#CDD6E0;" d="M390.121,499.23H373.09c-15.967,0-27.675-12.773-27.675-27.675v-40.45H164.458v40.449
	c0,15.967-12.773,27.675-27.675,27.675h-17.032c-3.193,0-6.387,2.129-6.387,6.387l0,0c0,3.193,2.129,6.387,6.387,6.387h270.37
	c3.193,0,6.387-2.129,6.387-6.387l0,0C396.508,501.358,393.314,499.23,390.121,499.23z"/>
<rect id="SVGCleanerId_0" x="59.078" y="92.607" style="fill:#FFFFFF;" width="391.714" height="242.694"/>
<g>
	<rect id="SVGCleanerId_0_1_" x="59.078" y="92.607" style="fill:#FFFFFF;" width="391.714" height="242.694"/>
</g>
<path style="fill:#F2F2F2;" d="M31.403,362.98v48.965c0,10.645,8.515,19.16,19.16,19.16h410.877c10.645,0,19.16-8.515,19.16-19.16
	V362.98L31.403,362.98L31.403,362.98z"/>
<circle style="fill:#CDD6E0;" cx="254.94" cy="397.043" r="14.902"/>
<rect x="164.458" y="430.044" style="fill:#C3D0DB;" width="180.953" height="13.838"/>
<path style="fill:#55BFE9;" d="M379.477,311.886v5.322V311.886z"/>
<polygon style="fill:#FFD15C;" points="369.897,317.209 369.897,317.209 379.477,317.209 "/>
<rect x="325.193" style="fill:#ACB3BA;" width="42.372" height="335.301"/>
<polygon style="fill:#54C0EB;" points="432.699,335.304 405.024,335.304 405.024,335.304 405.024,308.693 432.699,308.693 "/>
<polygon style="fill:#FFD05C;" points="405.024,36.195 418.861,0.003 432.699,36.195 "/>
<rect x="405.027" y="36.195" style="fill:#FF7058;" width="14.762" height="263.98"/>
<rect x="418.858" y="36.195" style="fill:#F1543F;" width="13.838" height="263.98"/>
<polygon style="fill:#334A5E;" points="424.184,14.905 418.861,0.003 413.539,14.905 "/>
<rect x="405.027" y="300.174" style="fill:#F2F2F2;" width="27.675" height="8.515"/>
<g>
	<rect x="366.707" style="fill:#CDD6E0;" width="24.482" height="335.301"/>
	<rect x="325.193" y="11.716" style="fill:#CDD6E0;" width="9.58" height="2.129"/>
	<rect x="325.193" y="34.069" style="fill:#CDD6E0;" width="9.58" height="2.129"/>
	<rect x="325.193" y="56.422" style="fill:#CDD6E0;" width="9.58" height="2.129"/>
	<rect x="325.193" y="77.708" style="fill:#CDD6E0;" width="9.58" height="2.129"/>
	<rect x="325.193" y="100.061" style="fill:#CDD6E0;" width="9.58" height="2.129"/>
	<rect x="325.193" y="122.415" style="fill:#CDD6E0;" width="9.58" height="2.129"/>
	<rect x="325.193" y="143.701" style="fill:#CDD6E0;" width="9.58" height="2.129"/>
	<rect x="325.193" y="166.054" style="fill:#CDD6E0;" width="9.58" height="2.129"/>
	<rect x="325.193" y="188.407" style="fill:#CDD6E0;" width="9.58" height="2.129"/>
	<rect x="325.193" y="210.761" style="fill:#CDD6E0;" width="9.58" height="2.129"/>
	<rect x="325.193" y="232.056" style="fill:#CDD6E0;" width="9.58" height="2.129"/>
	<rect x="325.193" y="254.41" style="fill:#CDD6E0;" width="9.58" height="2.129"/>
	<rect x="325.193" y="276.763" style="fill:#CDD6E0;" width="9.58" height="2.129"/>
	<rect x="325.193" y="298.049" style="fill:#CDD6E0;" width="9.58" height="2.129"/>
	<rect x="325.193" y="320.402" style="fill:#CDD6E0;" width="9.58" height="2.129"/>
</g>
<rect x="77.173" y="40.456" style="fill:#F2F2F2;" width="235.24" height="293.788"/>
<rect x="77.173" style="fill:#CDD6E0;" width="235.24" height="40.449"/>
<rect x="99.527" y="62.809" style="fill:#FFD15C;" width="190.533" height="111.767"/>
<rect x="99.527" y="197.987" style="fill:#F8B64C;" width="92.607" height="114.96"/>
<rect x="214.484" y="197.987" style="fill:#FF7058;" width="75.573" height="114.96"/>
<g>
</g>
<g>
</g>
<g>
</g>
<g>
</g>
<g>
</g>
<g>
</g>
<g>
</g>
<g>
</g>
<g>
</g>
<g>
</g>
<g>
</g>
<g>
</g>
<g>
</g>
<g>
</g>
<g>
</g>
</svg>
